<mxfile host="app.diagrams.net" agent="Mozilla/5.0 (Windows NT 10.0; Win64; x64) AppleWebKit/537.36 (KHTML, like Gecko) Chrome/138.0.0.0 Safari/537.36 Edg/138.0.0.0" version="28.0.7" pages="5">
  <diagram id="CsvzIDdWzbt1H7jSfQqH" name="Register">
    <mxGraphModel grid="1" page="1" gridSize="10" guides="1" tooltips="1" connect="1" arrows="1" fold="1" pageScale="1" pageWidth="827" pageHeight="1169" math="0" shadow="0">
      <root>
        <mxCell id="0" />
        <mxCell id="1" parent="0" />
        <mxCell id="KHvSFcjwkJeS7WXiO5KS-1" value="" style="rounded=1;whiteSpace=wrap;html=1;absoluteArcSize=1;arcSize=14;strokeWidth=2;" vertex="1" parent="1">
          <mxGeometry x="110" y="322.5" width="320" height="300" as="geometry" />
        </mxCell>
        <mxCell id="2RnGu_bA05LlyZ5AqTNT-1" value="" style="strokeWidth=2;html=1;shape=mxgraph.flowchart.start_1;whiteSpace=wrap;" vertex="1" parent="1">
          <mxGeometry x="319" y="435" width="100" height="60" as="geometry" />
        </mxCell>
        <mxCell id="uuVGCAZ4pCfhIYi13eVk-1" value="Anonymous" style="shape=umlActor;verticalLabelPosition=bottom;verticalAlign=top;html=1;outlineConnect=0;" vertex="1" parent="1">
          <mxGeometry x="40" y="435" width="30" height="60" as="geometry" />
        </mxCell>
        <mxCell id="uuVGCAZ4pCfhIYi13eVk-2" value="" style="strokeWidth=2;html=1;shape=mxgraph.flowchart.start_1;whiteSpace=wrap;" vertex="1" parent="1">
          <mxGeometry x="144" y="442.5" width="100" height="60" as="geometry" />
        </mxCell>
        <mxCell id="uuVGCAZ4pCfhIYi13eVk-3" value="" style="html=1;verticalAlign=bottom;labelBackgroundColor=none;endArrow=block;endFill=1;rounded=0;entryX=-0.017;entryY=0.478;entryDx=0;entryDy=0;entryPerimeter=0;" edge="1" parent="1" target="uuVGCAZ4pCfhIYi13eVk-2">
          <mxGeometry width="160" relative="1" as="geometry">
            <mxPoint x="89" y="470" as="sourcePoint" />
            <mxPoint x="139" y="474.86" as="targetPoint" />
          </mxGeometry>
        </mxCell>
        <mxCell id="uuVGCAZ4pCfhIYi13eVk-4" value="Register" style="text;html=1;align=center;verticalAlign=middle;whiteSpace=wrap;rounded=0;" vertex="1" parent="1">
          <mxGeometry x="149" y="460" width="90" height="25" as="geometry" />
        </mxCell>
        <mxCell id="uuVGCAZ4pCfhIYi13eVk-5" value="&amp;lt;&amp;lt;include&amp;gt;&amp;gt;" style="html=1;verticalAlign=bottom;labelBackgroundColor=none;endArrow=open;endFill=0;dashed=1;rounded=0;exitX=1;exitY=0.5;exitDx=0;exitDy=0;exitPerimeter=0;entryX=-0.007;entryY=0.555;entryDx=0;entryDy=0;entryPerimeter=0;" edge="1" parent="1" source="uuVGCAZ4pCfhIYi13eVk-2" target="2RnGu_bA05LlyZ5AqTNT-1">
          <mxGeometry x="0.0251" y="4" width="160" relative="1" as="geometry">
            <mxPoint x="249" y="465" as="sourcePoint" />
            <mxPoint x="319" y="465" as="targetPoint" />
            <mxPoint as="offset" />
          </mxGeometry>
        </mxCell>
        <mxCell id="uuVGCAZ4pCfhIYi13eVk-6" value="Email" style="text;html=1;align=center;verticalAlign=middle;whiteSpace=wrap;rounded=0;" vertex="1" parent="1">
          <mxGeometry x="324" y="452.5" width="90" height="25" as="geometry" />
        </mxCell>
        <mxCell id="uuVGCAZ4pCfhIYi13eVk-7" value="&amp;lt;&amp;lt;include&amp;gt;&amp;gt;" style="html=1;verticalAlign=bottom;labelBackgroundColor=none;endArrow=open;endFill=0;dashed=1;rounded=0;exitX=1;exitY=1;exitDx=0;exitDy=0;entryX=0.145;entryY=0.145;entryDx=0;entryDy=0;entryPerimeter=0;" edge="1" parent="1" source="uuVGCAZ4pCfhIYi13eVk-4" target="uuVGCAZ4pCfhIYi13eVk-8">
          <mxGeometry x="0.0251" y="4" width="160" relative="1" as="geometry">
            <mxPoint x="209" y="502.5" as="sourcePoint" />
            <mxPoint x="309" y="535" as="targetPoint" />
            <mxPoint as="offset" />
          </mxGeometry>
        </mxCell>
        <mxCell id="uuVGCAZ4pCfhIYi13eVk-8" value="" style="strokeWidth=2;html=1;shape=mxgraph.flowchart.start_1;whiteSpace=wrap;" vertex="1" parent="1">
          <mxGeometry x="290" y="510" width="100" height="60" as="geometry" />
        </mxCell>
        <mxCell id="uuVGCAZ4pCfhIYi13eVk-9" value="Password" style="text;html=1;align=center;verticalAlign=middle;whiteSpace=wrap;rounded=0;" vertex="1" parent="1">
          <mxGeometry x="295" y="527.5" width="90" height="25" as="geometry" />
        </mxCell>
        <mxCell id="2RnGu_bA05LlyZ5AqTNT-3" value="" style="strokeWidth=2;html=1;shape=mxgraph.flowchart.start_1;whiteSpace=wrap;" vertex="1" parent="1">
          <mxGeometry x="280" y="370" width="100" height="60" as="geometry" />
        </mxCell>
        <mxCell id="2RnGu_bA05LlyZ5AqTNT-4" value="&amp;lt;&amp;lt;include&amp;gt;&amp;gt;" style="html=1;verticalAlign=bottom;labelBackgroundColor=none;endArrow=open;endFill=0;dashed=1;rounded=0;exitX=1;exitY=0.5;exitDx=0;exitDy=0;exitPerimeter=0;" edge="1" parent="1" target="2RnGu_bA05LlyZ5AqTNT-3">
          <mxGeometry x="0.0251" y="4" width="160" relative="1" as="geometry">
            <mxPoint x="234" y="450.5" as="sourcePoint" />
            <mxPoint x="309" y="442.5" as="targetPoint" />
            <mxPoint as="offset" />
          </mxGeometry>
        </mxCell>
        <mxCell id="2RnGu_bA05LlyZ5AqTNT-5" value="Username" style="text;html=1;align=center;verticalAlign=middle;whiteSpace=wrap;rounded=0;" vertex="1" parent="1">
          <mxGeometry x="280" y="387.5" width="90" height="25" as="geometry" />
        </mxCell>
        <mxCell id="ZFWBk8WlpN363ashSTWR-1" value="&lt;h1 style=&quot;margin-top: 0px;&quot;&gt;Register&lt;/h1&gt;" style="text;html=1;whiteSpace=wrap;overflow=hidden;rounded=0;" vertex="1" parent="1">
          <mxGeometry x="115" y="322.5" width="180" height="40" as="geometry" />
        </mxCell>
      </root>
    </mxGraphModel>
  </diagram>
  <diagram name="Login" id="-HhNkLUk-2FHNS-3zv6_">
    <mxGraphModel grid="1" page="1" gridSize="10" guides="1" tooltips="1" connect="1" arrows="1" fold="1" pageScale="1" pageWidth="827" pageHeight="1169" math="0" shadow="0">
      <root>
        <mxCell id="0" />
        <mxCell id="1" parent="0" />
        <mxCell id="LRQS3228vNpQw1pR9m51-1" value="" style="rounded=1;whiteSpace=wrap;html=1;absoluteArcSize=1;arcSize=14;strokeWidth=2;" vertex="1" parent="1">
          <mxGeometry x="160" y="77.5" width="320" height="300" as="geometry" />
        </mxCell>
        <mxCell id="Zd3vkA9Xy3nZxR2Yhezl-1" value="Anonymous" style="shape=umlActor;verticalLabelPosition=bottom;verticalAlign=top;html=1;outlineConnect=0;" vertex="1" parent="1">
          <mxGeometry x="80" y="190" width="30" height="60" as="geometry" />
        </mxCell>
        <mxCell id="Cavd0XaGqEYOD9tD8XVc-8" value="" style="strokeWidth=2;html=1;shape=mxgraph.flowchart.start_1;whiteSpace=wrap;" vertex="1" parent="1">
          <mxGeometry x="175" y="197.5" width="100" height="60" as="geometry" />
        </mxCell>
        <mxCell id="Cavd0XaGqEYOD9tD8XVc-9" value="" style="html=1;verticalAlign=bottom;labelBackgroundColor=none;endArrow=block;endFill=1;rounded=0;entryX=-0.017;entryY=0.478;entryDx=0;entryDy=0;entryPerimeter=0;" edge="1" parent="1" target="Cavd0XaGqEYOD9tD8XVc-8">
          <mxGeometry width="160" relative="1" as="geometry">
            <mxPoint x="120" y="226" as="sourcePoint" />
            <mxPoint x="170" y="229.86" as="targetPoint" />
          </mxGeometry>
        </mxCell>
        <mxCell id="Cavd0XaGqEYOD9tD8XVc-10" value="Login" style="text;html=1;align=center;verticalAlign=middle;whiteSpace=wrap;rounded=0;" vertex="1" parent="1">
          <mxGeometry x="180" y="215" width="90" height="25" as="geometry" />
        </mxCell>
        <mxCell id="Cavd0XaGqEYOD9tD8XVc-11" value="&amp;lt;&amp;lt;include&amp;gt;&amp;gt;" style="html=1;verticalAlign=bottom;labelBackgroundColor=none;endArrow=open;endFill=0;dashed=1;rounded=0;exitX=1;exitY=0.5;exitDx=0;exitDy=0;exitPerimeter=0;entryX=0.002;entryY=0.431;entryDx=0;entryDy=0;entryPerimeter=0;" edge="1" parent="1" source="Cavd0XaGqEYOD9tD8XVc-8" target="Bvr_dN5BSxUF4XLlhqdI-1">
          <mxGeometry x="0.0251" y="4" width="160" relative="1" as="geometry">
            <mxPoint x="280" y="220" as="sourcePoint" />
            <mxPoint x="350" y="220" as="targetPoint" />
            <mxPoint as="offset" />
          </mxGeometry>
        </mxCell>
        <mxCell id="Bvr_dN5BSxUF4XLlhqdI-1" value="" style="strokeWidth=2;html=1;shape=mxgraph.flowchart.start_1;whiteSpace=wrap;" vertex="1" parent="1">
          <mxGeometry x="350" y="190" width="100" height="60" as="geometry" />
        </mxCell>
        <mxCell id="Bvr_dN5BSxUF4XLlhqdI-2" value="Email" style="text;html=1;align=center;verticalAlign=middle;whiteSpace=wrap;rounded=0;" vertex="1" parent="1">
          <mxGeometry x="355" y="207.5" width="90" height="25" as="geometry" />
        </mxCell>
        <mxCell id="Bvr_dN5BSxUF4XLlhqdI-3" value="&amp;lt;&amp;lt;include&amp;gt;&amp;gt;" style="html=1;verticalAlign=bottom;labelBackgroundColor=none;endArrow=open;endFill=0;dashed=1;rounded=0;exitX=1;exitY=1;exitDx=0;exitDy=0;entryX=0.145;entryY=0.145;entryDx=0;entryDy=0;entryPerimeter=0;" edge="1" parent="1" source="Cavd0XaGqEYOD9tD8XVc-10" target="Bvr_dN5BSxUF4XLlhqdI-4">
          <mxGeometry x="0.0251" y="4" width="160" relative="1" as="geometry">
            <mxPoint x="240" y="257.5" as="sourcePoint" />
            <mxPoint x="340" y="290" as="targetPoint" />
            <mxPoint as="offset" />
          </mxGeometry>
        </mxCell>
        <mxCell id="Bvr_dN5BSxUF4XLlhqdI-4" value="" style="strokeWidth=2;html=1;shape=mxgraph.flowchart.start_1;whiteSpace=wrap;" vertex="1" parent="1">
          <mxGeometry x="340" y="280" width="100" height="60" as="geometry" />
        </mxCell>
        <mxCell id="Bvr_dN5BSxUF4XLlhqdI-5" value="Password" style="text;html=1;align=center;verticalAlign=middle;whiteSpace=wrap;rounded=0;" vertex="1" parent="1">
          <mxGeometry x="345" y="297.5" width="90" height="25" as="geometry" />
        </mxCell>
        <mxCell id="2pjcKV0uTvbLhxgYAdyw-1" value="&lt;h1 style=&quot;margin-top: 0px;&quot;&gt;Login&lt;/h1&gt;" style="text;html=1;whiteSpace=wrap;overflow=hidden;rounded=0;" vertex="1" parent="1">
          <mxGeometry x="160" y="77.5" width="200" height="40" as="geometry" />
        </mxCell>
      </root>
    </mxGraphModel>
  </diagram>
  <diagram id="tbpfghN6Q-DYbbmsUxWp" name="CrearSala">
    <mxGraphModel grid="1" page="1" gridSize="10" guides="1" tooltips="1" connect="1" arrows="1" fold="1" pageScale="1" pageWidth="827" pageHeight="1169" math="0" shadow="0">
      <root>
        <mxCell id="0" />
        <mxCell id="1" parent="0" />
        <mxCell id="OPEGnYoyVZIcNCaU2Ddk-1" value="" style="rounded=1;whiteSpace=wrap;html=1;absoluteArcSize=1;arcSize=14;strokeWidth=2;" vertex="1" parent="1">
          <mxGeometry x="140" y="40" width="680" height="210" as="geometry" />
        </mxCell>
        <mxCell id="-sbDb8JF4EBG_IhjglKw-1" value="Player" style="shape=umlActor;verticalLabelPosition=bottom;verticalAlign=top;html=1;outlineConnect=0;" vertex="1" parent="1">
          <mxGeometry x="90" y="125" width="30" height="60" as="geometry" />
        </mxCell>
        <mxCell id="-sbDb8JF4EBG_IhjglKw-2" value="" style="strokeWidth=2;html=1;shape=mxgraph.flowchart.start_1;whiteSpace=wrap;" vertex="1" parent="1">
          <mxGeometry x="185" y="132.5" width="100" height="60" as="geometry" />
        </mxCell>
        <mxCell id="-sbDb8JF4EBG_IhjglKw-3" value="" style="html=1;verticalAlign=bottom;labelBackgroundColor=none;endArrow=block;endFill=1;rounded=0;entryX=-0.017;entryY=0.478;entryDx=0;entryDy=0;entryPerimeter=0;" edge="1" parent="1" target="-sbDb8JF4EBG_IhjglKw-2">
          <mxGeometry width="160" relative="1" as="geometry">
            <mxPoint x="130" y="160" as="sourcePoint" />
            <mxPoint x="180" y="164.86" as="targetPoint" />
          </mxGeometry>
        </mxCell>
        <mxCell id="8NdDgwbRE1k5HJfoDb6M-6" value="" style="edgeStyle=orthogonalEdgeStyle;rounded=0;orthogonalLoop=1;jettySize=auto;html=1;" edge="1" parent="1" source="-sbDb8JF4EBG_IhjglKw-5" target="gPxmj9wPmXdDsnW2LwZO-1">
          <mxGeometry relative="1" as="geometry" />
        </mxCell>
        <mxCell id="-sbDb8JF4EBG_IhjglKw-5" value="" style="strokeWidth=2;html=1;shape=mxgraph.flowchart.start_1;whiteSpace=wrap;" vertex="1" parent="1">
          <mxGeometry x="590" y="132.5" width="100" height="60" as="geometry" />
        </mxCell>
        <mxCell id="-sbDb8JF4EBG_IhjglKw-7" value="" style="strokeWidth=2;html=1;shape=mxgraph.flowchart.start_1;whiteSpace=wrap;" vertex="1" parent="1">
          <mxGeometry x="470" y="132.5" width="100" height="60" as="geometry" />
        </mxCell>
        <mxCell id="-sbDb8JF4EBG_IhjglKw-9" value="Create game&amp;nbsp;&lt;br&gt;&lt;div&gt;room&lt;/div&gt;" style="text;html=1;align=center;verticalAlign=middle;whiteSpace=wrap;rounded=0;" vertex="1" parent="1">
          <mxGeometry x="190" y="150" width="90" height="25" as="geometry" />
        </mxCell>
        <mxCell id="gPxmj9wPmXdDsnW2LwZO-1" value="&lt;div&gt;Select&lt;/div&gt;&lt;div&gt;number&amp;nbsp;&lt;span style=&quot;background-color: transparent; color: light-dark(rgb(0, 0, 0), rgb(255, 255, 255));&quot;&gt;of&lt;/span&gt;&lt;/div&gt;&lt;div&gt;players&lt;/div&gt;" style="text;html=1;align=center;verticalAlign=middle;whiteSpace=wrap;rounded=0;" vertex="1" parent="1">
          <mxGeometry x="480" y="150" width="80" height="25" as="geometry" />
        </mxCell>
        <mxCell id="xjVlZZuSBwZvzjgiQd8n-3" value="&lt;div&gt;Generate&lt;/div&gt;&lt;div&gt;code&lt;/div&gt;" style="text;html=1;align=center;verticalAlign=middle;whiteSpace=wrap;rounded=0;" vertex="1" parent="1">
          <mxGeometry x="600" y="152.5" width="80" height="25" as="geometry" />
        </mxCell>
        <mxCell id="xjVlZZuSBwZvzjgiQd8n-9" value="" style="strokeWidth=2;html=1;shape=mxgraph.flowchart.start_1;whiteSpace=wrap;" vertex="1" parent="1">
          <mxGeometry x="710" y="135" width="100" height="60" as="geometry" />
        </mxCell>
        <mxCell id="xjVlZZuSBwZvzjgiQd8n-10" value="&lt;div&gt;Start&lt;/div&gt;&lt;div&gt;game&lt;/div&gt;" style="text;html=1;align=center;verticalAlign=middle;whiteSpace=wrap;rounded=0;" vertex="1" parent="1">
          <mxGeometry x="720" y="152.5" width="80" height="25" as="geometry" />
        </mxCell>
        <mxCell id="uOJHWajJUFJ6p_j7rdW1-2" value="&lt;h1 style=&quot;margin-top: 0px;&quot;&gt;&lt;span style=&quot;background-color: transparent; color: light-dark(rgb(0, 0, 0), rgb(255, 255, 255));&quot;&gt;Create room&lt;/span&gt;&lt;/h1&gt;" style="text;html=1;whiteSpace=wrap;overflow=hidden;rounded=0;" vertex="1" parent="1">
          <mxGeometry x="160" y="50" width="180" height="40" as="geometry" />
        </mxCell>
        <mxCell id="3hFBK3dEZJHpX-bruu7m-2" value="" style="strokeWidth=2;html=1;shape=mxgraph.flowchart.start_1;whiteSpace=wrap;" vertex="1" parent="1">
          <mxGeometry x="340" y="132.5" width="100" height="60" as="geometry" />
        </mxCell>
        <mxCell id="3hFBK3dEZJHpX-bruu7m-3" value="Verify&lt;div&gt;login&lt;/div&gt;" style="text;html=1;align=center;verticalAlign=middle;whiteSpace=wrap;rounded=0;" vertex="1" parent="1">
          <mxGeometry x="360" y="152.5" width="60" height="20" as="geometry" />
        </mxCell>
        <mxCell id="8NdDgwbRE1k5HJfoDb6M-1" value="" style="html=1;verticalAlign=bottom;labelBackgroundColor=none;endArrow=block;endFill=1;rounded=0;entryX=-0.003;entryY=0.531;entryDx=0;entryDy=0;entryPerimeter=0;exitX=1.014;exitY=0.536;exitDx=0;exitDy=0;exitPerimeter=0;" edge="1" parent="1" source="3hFBK3dEZJHpX-bruu7m-2" target="-sbDb8JF4EBG_IhjglKw-7">
          <mxGeometry width="160" relative="1" as="geometry">
            <mxPoint x="450" y="164.5" as="sourcePoint" />
            <mxPoint x="503" y="165.5" as="targetPoint" />
          </mxGeometry>
        </mxCell>
        <mxCell id="8NdDgwbRE1k5HJfoDb6M-5" value="" style="html=1;verticalAlign=bottom;labelBackgroundColor=none;endArrow=block;endFill=1;rounded=0;entryX=0;entryY=0.481;entryDx=0;entryDy=0;entryPerimeter=0;exitX=0.987;exitY=0.485;exitDx=0;exitDy=0;exitPerimeter=0;" edge="1" parent="1" source="-sbDb8JF4EBG_IhjglKw-7" target="-sbDb8JF4EBG_IhjglKw-5">
          <mxGeometry width="160" relative="1" as="geometry">
            <mxPoint x="570" y="163" as="sourcePoint" />
            <mxPoint x="599" y="162" as="targetPoint" />
          </mxGeometry>
        </mxCell>
        <mxCell id="8NdDgwbRE1k5HJfoDb6M-8" value="" style="html=1;verticalAlign=bottom;labelBackgroundColor=none;endArrow=block;endFill=1;rounded=0;exitX=0.987;exitY=0.485;exitDx=0;exitDy=0;exitPerimeter=0;" edge="1" parent="1" target="xjVlZZuSBwZvzjgiQd8n-9">
          <mxGeometry width="160" relative="1" as="geometry">
            <mxPoint x="690" y="163" as="sourcePoint" />
            <mxPoint x="711" y="162" as="targetPoint" />
          </mxGeometry>
        </mxCell>
        <mxCell id="8NdDgwbRE1k5HJfoDb6M-9" style="edgeStyle=orthogonalEdgeStyle;rounded=0;orthogonalLoop=1;jettySize=auto;html=1;exitX=0.5;exitY=1;exitDx=0;exitDy=0;" edge="1" parent="1" source="OPEGnYoyVZIcNCaU2Ddk-1" target="OPEGnYoyVZIcNCaU2Ddk-1">
          <mxGeometry relative="1" as="geometry" />
        </mxCell>
        <mxCell id="SdIXgKAhwLQ_l-G94yTk-1" value="&amp;lt;&amp;lt;include&amp;gt;&amp;gt;" style="html=1;verticalAlign=bottom;labelBackgroundColor=none;endArrow=open;endFill=0;dashed=1;rounded=0;exitX=1;exitY=0.5;exitDx=0;exitDy=0;exitPerimeter=0;entryX=-0.017;entryY=0.529;entryDx=0;entryDy=0;entryPerimeter=0;" edge="1" parent="1" target="3hFBK3dEZJHpX-bruu7m-2">
          <mxGeometry x="0.0251" y="4" width="160" relative="1" as="geometry">
            <mxPoint x="285" y="164.92000000000002" as="sourcePoint" />
            <mxPoint x="360" y="164.92000000000002" as="targetPoint" />
            <mxPoint as="offset" />
          </mxGeometry>
        </mxCell>
      </root>
    </mxGraphModel>
  </diagram>
  <diagram id="n-J4GZNy3TnQ7GA1GwqP" name="UnirseaSala">
    <mxGraphModel grid="1" page="1" gridSize="10" guides="1" tooltips="1" connect="1" arrows="1" fold="1" pageScale="1" pageWidth="827" pageHeight="1169" math="0" shadow="0">
      <root>
        <mxCell id="0" />
        <mxCell id="1" parent="0" />
        <mxCell id="BMTeU8B2eU2hrP0mtF-8-1" value="" style="rounded=1;whiteSpace=wrap;html=1;absoluteArcSize=1;arcSize=14;strokeWidth=2;" vertex="1" parent="1">
          <mxGeometry x="320" y="402.5" width="400" height="240" as="geometry" />
        </mxCell>
        <mxCell id="BMTeU8B2eU2hrP0mtF-8-2" value="Player" style="shape=umlActor;verticalLabelPosition=bottom;verticalAlign=top;html=1;outlineConnect=0;" vertex="1" parent="1">
          <mxGeometry x="240" y="545" width="30" height="60" as="geometry" />
        </mxCell>
        <mxCell id="BMTeU8B2eU2hrP0mtF-8-3" value="" style="strokeWidth=2;html=1;shape=mxgraph.flowchart.start_1;whiteSpace=wrap;" vertex="1" parent="1">
          <mxGeometry x="335" y="552.5" width="100" height="60" as="geometry" />
        </mxCell>
        <mxCell id="BMTeU8B2eU2hrP0mtF-8-4" value="" style="html=1;verticalAlign=bottom;labelBackgroundColor=none;endArrow=block;endFill=1;rounded=0;entryX=-0.017;entryY=0.478;entryDx=0;entryDy=0;entryPerimeter=0;" edge="1" parent="1" target="BMTeU8B2eU2hrP0mtF-8-3">
          <mxGeometry width="160" relative="1" as="geometry">
            <mxPoint x="280" y="580" as="sourcePoint" />
            <mxPoint x="330" y="584.86" as="targetPoint" />
          </mxGeometry>
        </mxCell>
        <mxCell id="BMTeU8B2eU2hrP0mtF-8-5" value="Join Room" style="text;html=1;align=center;verticalAlign=middle;whiteSpace=wrap;rounded=0;" vertex="1" parent="1">
          <mxGeometry x="340" y="570" width="90" height="25" as="geometry" />
        </mxCell>
        <mxCell id="BMTeU8B2eU2hrP0mtF-8-8" value="" style="strokeWidth=2;html=1;shape=mxgraph.flowchart.start_1;whiteSpace=wrap;" vertex="1" parent="1">
          <mxGeometry x="480" y="492.5" width="100" height="60" as="geometry" />
        </mxCell>
        <mxCell id="BMTeU8B2eU2hrP0mtF-8-9" value="&amp;lt;&amp;lt;include&amp;gt;&amp;gt;" style="html=1;verticalAlign=bottom;labelBackgroundColor=none;endArrow=open;endFill=0;dashed=1;rounded=0;entryX=0.039;entryY=0.735;entryDx=0;entryDy=0;entryPerimeter=0;" edge="1" parent="1" target="BMTeU8B2eU2hrP0mtF-8-8">
          <mxGeometry x="-0.3881" y="14" width="160" relative="1" as="geometry">
            <mxPoint x="425" y="561" as="sourcePoint" />
            <mxPoint x="500" y="552.5" as="targetPoint" />
            <mxPoint as="offset" />
          </mxGeometry>
        </mxCell>
        <mxCell id="BMTeU8B2eU2hrP0mtF-8-10" value="&lt;div&gt;Enter&lt;/div&gt;&lt;div&gt;code&lt;/div&gt;" style="text;html=1;align=center;verticalAlign=middle;whiteSpace=wrap;rounded=0;" vertex="1" parent="1">
          <mxGeometry x="485" y="510" width="90" height="25" as="geometry" />
        </mxCell>
        <mxCell id="ZHvxSuHFzvAgMRG5Ci_9-2" value="&amp;lt;&amp;lt;include&amp;gt;&amp;gt;" style="html=1;verticalAlign=bottom;labelBackgroundColor=none;endArrow=open;endFill=0;dashed=1;rounded=0;exitX=1;exitY=0;exitDx=0;exitDy=0;" edge="1" parent="1" source="BMTeU8B2eU2hrP0mtF-8-10" target="ZHvxSuHFzvAgMRG5Ci_9-3">
          <mxGeometry x="-0.3881" y="14" width="160" relative="1" as="geometry">
            <mxPoint x="575" y="504" as="sourcePoint" />
            <mxPoint x="610" y="490" as="targetPoint" />
            <mxPoint as="offset" />
          </mxGeometry>
        </mxCell>
        <mxCell id="ZHvxSuHFzvAgMRG5Ci_9-3" value="" style="strokeWidth=2;html=1;shape=mxgraph.flowchart.start_1;whiteSpace=wrap;" vertex="1" parent="1">
          <mxGeometry x="610" y="450" width="100" height="60" as="geometry" />
        </mxCell>
        <mxCell id="ZHvxSuHFzvAgMRG5Ci_9-4" value="&lt;div&gt;Enter the&lt;/div&gt;&lt;div&gt;room&lt;/div&gt;" style="text;html=1;align=center;verticalAlign=middle;whiteSpace=wrap;rounded=0;" vertex="1" parent="1">
          <mxGeometry x="615" y="467.5" width="90" height="25" as="geometry" />
        </mxCell>
        <mxCell id="Bs26xvZAQK5cIH74tJ0g-1" value="&lt;h1 style=&quot;margin-top: 0px;&quot;&gt;Join Room&lt;/h1&gt;" style="text;html=1;whiteSpace=wrap;overflow=hidden;rounded=0;" vertex="1" parent="1">
          <mxGeometry x="324" y="402.5" width="180" height="40" as="geometry" />
        </mxCell>
      </root>
    </mxGraphModel>
  </diagram>
  <diagram id="IFeXiUke4hyMogohDGRE" name="OlvidoContraseña">
    <mxGraphModel grid="1" page="1" gridSize="10" guides="1" tooltips="1" connect="1" arrows="1" fold="1" pageScale="1" pageWidth="827" pageHeight="1169" math="0" shadow="0">
      <root>
        <mxCell id="0" />
        <mxCell id="1" parent="0" />
        <mxCell id="VVR2xkJbiTJw7DFc5lWb-1" value="" style="rounded=1;whiteSpace=wrap;html=1;absoluteArcSize=1;arcSize=14;strokeWidth=2;" vertex="1" parent="1">
          <mxGeometry x="120" y="470" width="680" height="300" as="geometry" />
        </mxCell>
        <mxCell id="VVR2xkJbiTJw7DFc5lWb-2" value="" style="strokeWidth=2;html=1;shape=mxgraph.flowchart.start_1;whiteSpace=wrap;" vertex="1" parent="1">
          <mxGeometry x="330" y="610" width="100" height="60" as="geometry" />
        </mxCell>
        <mxCell id="VVR2xkJbiTJw7DFc5lWb-3" value="Anonymous" style="shape=umlActor;verticalLabelPosition=bottom;verticalAlign=top;html=1;outlineConnect=0;" vertex="1" parent="1">
          <mxGeometry x="60" y="602.5" width="30" height="60" as="geometry" />
        </mxCell>
        <mxCell id="VVR2xkJbiTJw7DFc5lWb-4" value="" style="strokeWidth=2;html=1;shape=mxgraph.flowchart.start_1;whiteSpace=wrap;" vertex="1" parent="1">
          <mxGeometry x="155" y="610" width="100" height="60" as="geometry" />
        </mxCell>
        <mxCell id="VVR2xkJbiTJw7DFc5lWb-5" value="" style="html=1;verticalAlign=bottom;labelBackgroundColor=none;endArrow=block;endFill=1;rounded=0;entryX=-0.017;entryY=0.478;entryDx=0;entryDy=0;entryPerimeter=0;" edge="1" parent="1" target="VVR2xkJbiTJw7DFc5lWb-4">
          <mxGeometry width="160" relative="1" as="geometry">
            <mxPoint x="100" y="637.5" as="sourcePoint" />
            <mxPoint x="150" y="642.36" as="targetPoint" />
          </mxGeometry>
        </mxCell>
        <mxCell id="VVR2xkJbiTJw7DFc5lWb-6" value="&lt;div&gt;Forgot&lt;/div&gt;&lt;div&gt;password&lt;/div&gt;" style="text;html=1;align=center;verticalAlign=middle;whiteSpace=wrap;rounded=0;" vertex="1" parent="1">
          <mxGeometry x="160" y="627.5" width="90" height="25" as="geometry" />
        </mxCell>
        <mxCell id="VVR2xkJbiTJw7DFc5lWb-7" value="&amp;lt;&amp;lt;include&amp;gt;&amp;gt;" style="html=1;verticalAlign=bottom;labelBackgroundColor=none;endArrow=open;endFill=0;dashed=1;rounded=0;exitX=1;exitY=0.5;exitDx=0;exitDy=0;exitPerimeter=0;entryX=0;entryY=0.5;entryDx=0;entryDy=0;entryPerimeter=0;" edge="1" parent="1" source="VVR2xkJbiTJw7DFc5lWb-4" target="VVR2xkJbiTJw7DFc5lWb-2">
          <mxGeometry x="0.0251" y="4" width="160" relative="1" as="geometry">
            <mxPoint x="260" y="632.5" as="sourcePoint" />
            <mxPoint x="330" y="632.5" as="targetPoint" />
            <mxPoint as="offset" />
          </mxGeometry>
        </mxCell>
        <mxCell id="VVR2xkJbiTJw7DFc5lWb-8" value="Email" style="text;html=1;align=center;verticalAlign=middle;whiteSpace=wrap;rounded=0;" vertex="1" parent="1">
          <mxGeometry x="335" y="627.5" width="90" height="25" as="geometry" />
        </mxCell>
        <mxCell id="VVR2xkJbiTJw7DFc5lWb-10" value="" style="strokeWidth=2;html=1;shape=mxgraph.flowchart.start_1;whiteSpace=wrap;" vertex="1" parent="1">
          <mxGeometry x="490" y="610" width="100" height="60" as="geometry" />
        </mxCell>
        <mxCell id="0YhHsZsgSIYM_H29bvpK-1" value="&lt;h1 style=&quot;margin-top: 0px;&quot;&gt;Forgot password&lt;/h1&gt;" style="text;html=1;whiteSpace=wrap;overflow=hidden;rounded=0;" vertex="1" parent="1">
          <mxGeometry x="130" y="480" width="240" height="40" as="geometry" />
        </mxCell>
        <mxCell id="55uDKQCAUVbrXrrysH-Q-1" value="&amp;lt;&amp;lt;include&amp;gt;&amp;gt;" style="html=1;verticalAlign=bottom;labelBackgroundColor=none;endArrow=open;endFill=0;dashed=1;rounded=0;" edge="1" parent="1">
          <mxGeometry x="0.0251" y="4" width="160" relative="1" as="geometry">
            <mxPoint x="430" y="640" as="sourcePoint" />
            <mxPoint x="490" y="640" as="targetPoint" />
            <mxPoint as="offset" />
          </mxGeometry>
        </mxCell>
        <mxCell id="55uDKQCAUVbrXrrysH-Q-2" value="&lt;div&gt;Enter&lt;/div&gt;&lt;div&gt;code&lt;/div&gt;" style="text;html=1;align=center;verticalAlign=middle;whiteSpace=wrap;rounded=0;" vertex="1" parent="1">
          <mxGeometry x="495" y="627.5" width="90" height="25" as="geometry" />
        </mxCell>
        <mxCell id="55uDKQCAUVbrXrrysH-Q-4" value="&amp;lt;&amp;lt;include&amp;gt;&amp;gt;" style="html=1;verticalAlign=bottom;labelBackgroundColor=none;endArrow=open;endFill=0;dashed=1;rounded=0;" edge="1" parent="1">
          <mxGeometry x="0.0251" y="4" width="160" relative="1" as="geometry">
            <mxPoint x="590" y="640" as="sourcePoint" />
            <mxPoint x="650" y="640" as="targetPoint" />
            <mxPoint as="offset" />
          </mxGeometry>
        </mxCell>
        <mxCell id="55uDKQCAUVbrXrrysH-Q-5" value="" style="strokeWidth=2;html=1;shape=mxgraph.flowchart.start_1;whiteSpace=wrap;" vertex="1" parent="1">
          <mxGeometry x="650" y="610" width="100" height="60" as="geometry" />
        </mxCell>
        <mxCell id="55uDKQCAUVbrXrrysH-Q-6" value="&lt;div&gt;Enter new&lt;/div&gt;&lt;div&gt;password&lt;/div&gt;" style="text;html=1;align=center;verticalAlign=middle;whiteSpace=wrap;rounded=0;" vertex="1" parent="1">
          <mxGeometry x="655" y="627.5" width="90" height="25" as="geometry" />
        </mxCell>
      </root>
    </mxGraphModel>
  </diagram>
</mxfile>
